<?xml version="1.0" standalone="no"?>
<!DOCTYPE svg PUBLIC "-//W3C//DTD SVG 20010904//EN"
 "http://www.w3.org/TR/2001/REC-SVG-20010904/DTD/svg10.dtd">
<svg version="1.0" xmlns="http://www.w3.org/2000/svg"
 width="512.000000pt" height="512.000000pt" viewBox="0 0 512.000000 512.000000"
 preserveAspectRatio="xMidYMid meet">
<metadata>
Created by potrace 1.15, written by Peter Selinger 2001-2017
</metadata>
<g transform="translate(0.000000,512.000000) scale(0.100000,-0.100000)"
fill="#000000" stroke="none">
<path d="M970 3809 c-304 -79 -560 -255 -744 -509 -69 -95 -150 -269 -188
-400 -33 -115 -33 -115 -33 -340 0 -225 0 -225 33 -340 131 -455 476 -791 935
-910 111 -28 129 -30 307 -30 178 0 196 2 307 30 263 68 477 198 659 401 34
38 81 98 105 134 l43 65 166 0 166 0 43 -65 c24 -36 71 -96 105 -134 182 -203
396 -333 659 -401 111 -28 129 -30 307 -30 178 0 196 2 307 30 257 67 469 194
649 390 127 137 230 325 286 520 33 115 33 115 33 340 0 225 0 225 -33 340
-131 455 -476 791 -935 910 l-118 30 -1472 0 -1472 -1 -115 -30z m2908 -542
c6 -5 17 -5 22 -2 6 3 10 2 10 -4 0 -6 7 -8 15 -5 8 4 15 1 15 -5 0 -6 6 -11
13 -11 19 0 87 -67 87 -85 0 -8 4 -15 9 -15 13 0 29 -74 26 -123 -4 -55 -26
-98 -73 -147 -51 -51 -85 -64 -167 -64 -97 0 -135 21 -200 107 -24 33 -29 50
-31 110 -2 45 3 83 12 106 22 54 99 120 149 128 11 2 23 7 28 12 10 10 67 8
85 -2z m-2378 -92 c8 -10 11 -68 10 -200 l-1 -186 187 2 c153 1 188 -1 201
-13 12 -13 15 -52 14 -223 0 -115 -5 -213 -10 -218 -5 -5 -94 -10 -198 -11
l-188 -1 -1 -188 c-1 -103 -5 -194 -8 -202 -4 -13 -39 -15 -220 -15 -210 0
-216 0 -227 22 -8 14 -11 82 -10 205 l2 184 -191 -2 c-117 -1 -195 2 -202 9
-14 14 -12 420 3 438 9 11 51 14 201 14 l189 0 -1 182 c-2 152 1 184 14 200
14 16 34 18 220 18 166 0 206 -3 216 -15z m2866 -388 c4 -4 16 -7 26 -7 42 0
130 -77 154 -135 46 -112 -4 -242 -116 -300 -21 -11 -55 -16 -99 -16 -88 1
-101 3 -101 13 0 4 -7 8 -14 8 -22 0 -101 80 -115 117 -28 71 -14 175 31 233
25 32 118 90 134 83 6 -2 15 0 18 5 6 10 71 10 82 -1z m-921 -17 c17 -7 33
-13 38 -12 4 1 7 -3 7 -10 0 -6 3 -9 6 -5 10 10 59 -45 83 -91 27 -53 28 -141
2 -197 -21 -46 -88 -118 -102 -110 -5 4 -9 1 -9 -4 0 -6 -13 -11 -28 -11 -16
0 -32 -3 -35 -6 -8 -9 -78 -12 -92 -5 -5 3 -19 7 -30 8 -45 7 -118 73 -140
126 -8 20 -15 40 -14 44 1 5 0 10 -1 13 -8 18 -7 80 1 80 6 0 8 4 4 10 -10 16
23 80 60 117 63 63 172 86 250 53z m450 -464 c84 -31 136 -69 163 -121 25 -48
25 -160 0 -209 -23 -46 -82 -106 -104 -106 -8 0 -14 -3 -14 -7 0 -14 -124 -22
-165 -11 -101 27 -179 138 -170 240 5 49 25 102 52 134 25 30 104 78 125 76
10 0 20 2 22 6 5 9 65 7 91 -2z"/>
</g>
</svg>
